<?xml version="1.0" encoding="UTF-8"?>
<!DOCTYPE svg PUBLIC "-//W3C//DTD SVG 1.1//EN" "http://www.w3.org/Graphics/SVG/1.1/DTD/svg11.dtd">
<!-- Creator: CorelDRAW X7 -->
<svg xmlns="http://www.w3.org/2000/svg" xml:space="preserve" width="47.5219mm" height="11.2777mm" version="1.1" style="shape-rendering:geometricPrecision; text-rendering:geometricPrecision; image-rendering:optimizeQuality; fill-rule:evenodd; clip-rule:evenodd"
viewBox="0 0 4510 1070"
 xmlns:xlink="http://www.w3.org/1999/xlink">
 <defs>
  <style type="text/css">
   <![CDATA[
    .str1 {stroke:#373435;stroke-width:7.23241}
    .str0 {stroke:#237AD1;stroke-width:7.23241}
    .fil2 {fill:#373435}
    .fil0 {fill:#237AD1}
    .fil1 {fill:white}
    .fil3 {fill:#373435;fill-rule:nonzero}
   ]]>
  </style>
 </defs>
 <g id="Camada_x0020_1">
  <metadata id="CorelCorpID_0Corel-Layer"/>
  <g id="_834397680">
   <path class="fil0 str0" d="M95 879c-15,33 -1,72 18,87 24,19 64,16 100,16l463 0c40,0 79,3 100,-21 17,-20 26,-56 11,-86l-191 -272 -308 0 -193 276z"/>
   <path class="fil1" d="M288 603l308 0 191 272c15,30 6,66 -11,86 -21,24 -60,21 -100,21l-463 0c-36,0 -76,3 -100,-16 -19,-15 -33,-54 -18,-87l193 -276zm260 -553l-213 -1c-7,90 7,365 -1,411 -3,15 -11,21 -20,33l-148 213c-29,39 -55,81 -84,120 -37,50 -49,96 -10,153 30,42 89,44 158,44l412 0c68,0 136,2 167,-40 38,-51 32,-102 -3,-150l-255 -368c-9,-32 4,-338 -3,-415z"/>
   <path class="fil2 str1" d="M548 50c7,77 -6,383 3,415l255 368c35,48 41,99 3,150 -31,42 -99,40 -167,40l-412 0c-69,0 -128,-2 -158,-44 -39,-57 -27,-103 10,-153 29,-39 55,-81 84,-120l148 -213c9,-12 17,-18 20,-33 8,-46 -6,-321 1,-411l213 1zm-332 -42c-3,6 -6,-8 -7,17 -2,33 37,21 80,25 9,108 0,252 1,364 0,44 -2,39 -22,67l-226 323c-52,70 -50,139 -2,207 12,17 32,29 51,39 27,14 55,17 88,17l537 0c50,0 101,-19 128,-56 73,-102 24,-174 -38,-257l-188 -270c-21,-32 -25,-22 -24,-70 0,-112 -9,-256 1,-364 17,-2 99,8 78,-34 -6,-13 -11,-11 -31,-11 -76,0 -373,-4 -426,3z"/>
   <polygon class="fil3" points="1141,824 1141,215 1240,215 1240,440 1540,440 1540,215 1639,215 1639,824 1540,824 1540,529 1240,529 1240,824 "/>
   <path id="1" class="fil3" d="M2157 824l-91 0 0 -51c-16,23 -35,39 -56,50 -22,12 -47,17 -75,17 -55,0 -99,-19 -131,-57 -33,-38 -49,-90 -49,-157 0,-62 17,-113 49,-152 33,-38 76,-58 129,-58 32,0 60,7 83,20 23,14 39,33 50,58l0 -64 91 0 0 394zm-88 -198c0,-41 -10,-73 -29,-96 -19,-22 -46,-34 -80,-34 -34,0 -61,12 -81,35 -19,24 -29,56 -29,98 0,42 9,74 28,97 19,23 46,34 80,34 33,0 60,-12 80,-37 20,-25 31,-57 31,-97z"/>
   <path id="2" class="fil3" d="M2249 752l75 -40c5,19 16,34 31,45 15,10 34,15 58,15 20,0 36,-5 47,-14 12,-9 18,-22 18,-38 0,-21 -21,-40 -62,-55 -14,-5 -25,-9 -32,-12 -42,-18 -72,-36 -89,-54 -16,-17 -25,-39 -25,-65 0,-35 14,-64 42,-86 27,-22 64,-33 109,-33 31,0 57,6 79,17 22,11 38,27 48,48l-65 44c-4,-12 -13,-22 -24,-29 -12,-8 -26,-12 -41,-12 -18,0 -31,5 -42,13 -10,8 -15,19 -15,32 0,21 23,40 69,56 15,6 27,10 35,13 36,15 62,31 78,49 16,18 23,41 23,68 0,40 -14,70 -43,93 -28,22 -68,33 -118,33 -39,0 -71,-7 -96,-21 -26,-15 -46,-37 -60,-67z"/>
   <path id="3" class="fil3" d="M2670 824l0 -644 86 0 0 315c18,-28 39,-48 63,-60 25,-13 55,-19 90,-19 29,0 54,5 75,14 21,10 37,23 48,42 7,10 12,23 16,37 3,15 4,40 4,76l0 239 -91 0 0 -202c0,-52 -7,-87 -19,-104 -13,-17 -35,-25 -68,-25 -21,0 -40,4 -56,11 -17,8 -30,19 -39,33 -7,10 -11,22 -14,37 -3,14 -4,38 -4,70l0 180 -91 0z"/>
   <polygon id="4" class="fil3" points="3193,824 3193,215 3292,215 3292,735 3514,735 3514,824 "/>
   <path id="5" class="fil3" d="M3972 824l-91 0 0 -51c-16,23 -35,39 -56,50 -22,12 -47,17 -74,17 -56,0 -100,-19 -132,-57 -32,-38 -49,-90 -49,-157 0,-62 17,-113 50,-152 33,-38 75,-58 128,-58 32,0 60,7 83,20 23,14 40,33 50,58l0 -64 91 0 0 394zm-88 -198c0,-41 -10,-73 -29,-96 -19,-22 -46,-34 -80,-34 -34,0 -61,12 -80,35 -20,24 -30,56 -30,98 0,42 10,74 29,97 18,23 45,34 80,34 32,0 59,-12 79,-37 21,-25 31,-57 31,-97z"/>
   <path id="6" class="fil3" d="M4197 626c0,40 10,72 31,97 21,25 47,37 80,37 34,0 61,-11 80,-34 18,-23 28,-55 28,-97 0,-42 -10,-74 -30,-98 -19,-23 -46,-35 -80,-35 -35,0 -61,12 -80,34 -20,23 -29,55 -29,96zm3 -446l0 314c10,-25 27,-44 50,-57 24,-14 51,-21 84,-21 52,0 95,20 128,58 32,39 48,90 48,152 0,67 -16,119 -48,157 -32,38 -76,57 -132,57 -28,0 -52,-5 -74,-17 -21,-11 -40,-27 -56,-50l0 51 -91 0 0 -644 91 0z"/>
  </g>
 </g>
</svg>
