<?xml version="1.0" encoding="UTF-8"?>
<!DOCTYPE svg PUBLIC "-//W3C//DTD SVG 1.1//EN" "http://www.w3.org/Graphics/SVG/1.1/DTD/svg11.dtd">
<!-- Creator: CorelDRAW X7 -->
<svg xmlns="http://www.w3.org/2000/svg" xml:space="preserve" width="357.685mm" height="79.4552mm" version="1.1" style="shape-rendering:geometricPrecision; text-rendering:geometricPrecision; image-rendering:optimizeQuality; fill-rule:evenodd; clip-rule:evenodd"
viewBox="0 0 32753 7276"
 xmlns:xlink="http://www.w3.org/1999/xlink">
 <defs>
  <style type="text/css">
   <![CDATA[
    .str0 {stroke:#237AD1;stroke-width:6.97751}
    .fil3 {fill:none;fill-rule:nonzero}
    .fil1 {fill:#237AD1}
    .fil2 {fill:#FEFEFE}
    .fil0 {fill:#237AD1;fill-rule:nonzero}
   ]]>
  </style>
 </defs>
 <g id="Camada_x0020_1">
  <metadata id="CorelCorpID_0Corel-Layer"/>
  <polygon class="fil0" points="8327,5713 8327,1947 8940,1947 8940,3338 10800,3338 10800,1947 11413,1947 11413,5713 10800,5713 10800,3886 8940,3886 8940,5713 "/>
  <path id="1" class="fil0" d="M13077 4233l1053 0 -387 -858c-22,-55 -46,-118 -70,-189 -24,-71 -48,-150 -72,-238 -20,83 -42,159 -66,230 -23,71 -47,137 -71,197l-387 858zm1698 1480l-428 -969 -1497 0 -439 969 -644 0 1829 -3913 1827 3913 -648 0z"/>
  <path id="2" class="fil0" d="M15561 4959l490 -225c46,167 132,296 256,383 123,89 282,133 475,133 183,0 327,-51 436,-152 107,-101 161,-236 161,-406 0,-221 -184,-418 -553,-591 -52,-26 -92,-45 -119,-56 -417,-203 -694,-386 -832,-550 -139,-164 -208,-364 -208,-600 0,-308 105,-556 313,-747 209,-190 484,-285 823,-285 278,0 511,54 699,161 188,107 317,261 389,461l-479 247c-76,-118 -158,-205 -249,-260 -91,-55 -195,-82 -312,-82 -164,0 -297,43 -393,129 -98,85 -147,200 -147,344 0,227 214,438 642,633 32,16 58,28 77,36 373,172 630,340 769,503 139,164 209,369 209,614 0,356 -113,640 -339,849 -225,210 -530,315 -914,315 -321,0 -584,-73 -791,-221 -205,-147 -339,-358 -403,-633z"/>
  <polygon id="3" class="fil0" points="18678,5713 18678,1947 19291,1947 19291,3338 21150,3338 21150,1947 21763,1947 21763,5713 21150,5713 21150,3886 19291,3886 19291,5713 "/>
  <path id="4" class="fil0" d="M23232 3538l234 0c293,0 499,-39 620,-119 121,-80 182,-214 182,-402 0,-207 -56,-351 -167,-434 -112,-83 -324,-125 -635,-125l-234 0 0 1080zm0 1664l212 0c214,0 376,-8 482,-25 107,-18 190,-47 253,-90 76,-50 134,-117 175,-201 42,-84 62,-176 62,-278 0,-119 -25,-225 -75,-313 -50,-90 -122,-159 -214,-208 -58,-30 -125,-51 -200,-65 -75,-13 -174,-20 -298,-20l-185 0 -212 0 0 1200zm-602 511l0 -3766 953 0c272,0 473,15 602,44 130,29 240,78 332,144 117,86 208,199 272,337 64,140 97,293 97,461 0,201 -47,369 -139,503 -93,135 -228,229 -405,282 220,34 393,134 519,300 125,165 189,374 189,626 0,152 -27,297 -80,435 -53,137 -129,253 -227,349 -104,105 -231,178 -384,221 -154,43 -410,64 -771,64l-958 0z"/>
  <path id="5" class="fil0" d="M28908 3838c0,-190 -35,-371 -105,-542 -69,-171 -170,-324 -300,-458 -128,-132 -275,-233 -442,-304 -168,-71 -345,-107 -530,-107 -186,0 -363,35 -531,105 -168,70 -317,172 -448,306 -130,132 -231,284 -299,455 -69,171 -103,353 -103,545 0,191 34,371 103,540 68,170 169,321 299,455 131,134 279,236 447,306 166,71 344,106 532,106 184,0 358,-35 524,-106 166,-70 316,-172 448,-306 130,-134 231,-285 300,-456 70,-171 105,-350 105,-539zm639 0c0,268 -50,521 -150,759 -102,239 -248,451 -441,638 -193,187 -413,330 -658,429 -243,99 -500,149 -767,149 -273,0 -531,-50 -779,-150 -246,-101 -464,-243 -653,-428 -193,-187 -339,-399 -439,-636 -99,-236 -150,-489 -150,-761 0,-269 51,-523 150,-761 100,-239 246,-452 439,-641 193,-187 411,-329 655,-426 244,-98 503,-147 777,-147 271,0 528,49 772,147 243,97 461,239 653,426 193,191 339,406 441,645 100,239 150,491 150,757z"/>
  <path id="6" class="fil0" d="M29725 5713l1226 -1970 -1083 -1796 644 0 545 921c29,49 83,148 162,299l38 74c29,-53 58,-109 92,-169 33,-61 72,-126 115,-198l575 -927 629 0 -1103 1786 1188 1980 -678 0 -632 -1067 -10 -18c-69,-129 -132,-250 -191,-363 -29,59 -61,118 -96,182 -34,62 -71,126 -111,191l-660 1075 -650 0z"/>
  <path class="fil1 str0" d="M3796 6872c-40,-872 -12,-2979 -5,-3952l3108 -1200 3 4057c-131,80 -1301,469 -1540,555l-1566 540zm-3458 -5148c145,16 607,213 770,276l2352 896 0 3977 -3121 -1161 -1 -3988zm302 -276c476,-125 2803,-1086 2983,-1088 75,-1 2891,1070 2965,1129 -251,111 -2886,1125 -2964,1122l-2940 -1131c-7,-4 -17,-12 -22,-16 -6,-3 -15,-10 -22,-16zm-637 -38l0 4457c116,155 645,305 858,386 347,132 2574,936 2698,1019l133 0c148,-92 674,-246 872,-318l2273 -795c227,-77 269,-63 402,-224l0 -4491c-124,-161 -628,-313 -850,-396l-2823 -1044c-155,95 -2304,872 -2678,1013 -240,91 -722,326 -885,393z"/>
  <path class="fil2" d="M7239 1444l0 -1440 -3554 0 2704 1044c222,83 726,235 850,396z"/>
  <path class="fil2" d="M3 1410c134,-165 645,-302 885,-393 374,-141 2523,-918 2678,-1013l-3563 0 0 1406z"/>
  <path class="fil2" d="M3 7272l3556 0c-124,-83 -2351,-887 -2698,-1019 -213,-81 -742,-231 -858,-386l0 1405z"/>
  <path class="fil2" d="M3692 7272l3547 0 0 -1337c-133,161 -175,147 -402,224l-2273 795c-198,72 -724,226 -872,318z"/>
  <path class="fil0" d="M4403 6113c3,-466 7,-932 10,-1399 3,-466 7,-932 10,-1399 133,-55 267,-110 402,-166 -1,174 -2,348 -4,522 -1,173 -2,347 -3,521 206,-80 415,-161 625,-243 213,-83 428,-166 645,-251 1,-179 3,-358 4,-537 1,-179 2,-358 4,-537 144,-60 289,-120 436,-181 -4,490 -7,981 -10,1471 -4,489 -7,979 -10,1469 -147,51 -292,101 -437,151 2,-235 4,-471 5,-706 2,-235 4,-471 5,-706 -217,82 -432,163 -645,244 -210,80 -419,159 -625,237 -2,228 -3,457 -5,686 -2,228 -3,457 -5,685 -135,47 -269,93 -402,139z"/>
  <path id="1" class="fil3 str0" d="M4403 6113c3,-466 7,-932 10,-1399 3,-466 7,-932 10,-1399 133,-55 267,-110 402,-166 -1,174 -2,348 -4,522 -1,173 -2,347 -3,521 206,-80 415,-161 625,-243 213,-83 428,-166 645,-251 1,-179 3,-358 4,-537 1,-179 2,-358 4,-537 144,-60 289,-120 436,-181 -4,490 -7,981 -10,1471 -4,489 -7,979 -10,1469 -147,51 -292,101 -437,151 2,-235 4,-471 5,-706 2,-235 4,-471 5,-706 -217,82 -432,163 -645,244 -210,80 -419,159 -625,237 -2,228 -3,457 -5,686 -2,228 -3,457 -5,685 -135,47 -269,93 -402,139z"/>
  <path class="fil0" d="M2923 6148c-3,-466 -7,-932 -10,-1398 -4,-467 -7,-933 -10,-1400 -133,-55 -268,-110 -403,-166 2,174 3,348 4,522 1,173 3,348 4,521 -206,-80 -415,-161 -626,-243 -212,-83 -427,-166 -645,-250 -1,-179 -2,-359 -3,-538 -2,-178 -3,-358 -4,-537 -144,-60 -290,-120 -436,-181 3,491 7,981 10,1471 3,490 7,980 10,1469 147,51 292,101 436,151 -1,-235 -3,-471 -5,-706 -1,-235 -3,-471 -5,-706 218,82 433,163 645,244 211,80 419,159 626,237 2,229 3,457 5,686 1,228 3,457 5,685 135,47 269,93 402,139z"/>
  <path id="1" class="fil3 str0" d="M2923 6148c-3,-466 -7,-932 -10,-1398 -4,-467 -7,-933 -10,-1400 -133,-55 -268,-110 -403,-166 2,174 3,348 4,522 1,173 3,348 4,521 -206,-80 -415,-161 -626,-243 -212,-83 -427,-166 -645,-250 -1,-179 -2,-359 -3,-538 -2,-178 -3,-358 -4,-537 -144,-60 -290,-120 -436,-181 3,491 7,981 10,1471 3,490 7,980 10,1469 147,51 292,101 436,151 -1,-235 -3,-471 -5,-706 -1,-235 -3,-471 -5,-706 218,82 433,163 645,244 211,80 419,159 626,237 2,229 3,457 5,686 1,228 3,457 5,685 135,47 269,93 402,139z"/>
  <path class="fil0" d="M3534 2331c188,-69 377,-139 565,-209 189,-70 379,-140 569,-210 190,-71 380,-141 571,-212 191,-71 383,-142 575,-213 -148,-61 -296,-122 -442,-182 -140,52 -279,104 -419,156 -139,51 -278,103 -417,155 -107,-46 -214,-93 -320,-138 -105,-46 -210,-91 -313,-135 -104,-45 -207,-89 -310,-134 -101,-43 -202,-87 -302,-130 133,-50 266,-100 400,-151 134,-50 268,-100 402,-151 -135,-56 -269,-111 -402,-167 -180,68 -359,136 -537,204 -179,67 -357,135 -534,202 -178,67 -355,134 -532,201 -176,66 -353,133 -528,199 124,58 249,116 374,174 173,-65 347,-131 520,-196 174,-65 348,-131 522,-196 100,43 199,87 300,131 101,44 203,89 306,134 103,45 206,90 310,136 105,46 210,92 317,139 -182,67 -363,135 -544,202 -181,67 -362,134 -541,201 136,63 272,127 410,190z"/>
  <path id="1" class="fil3 str0" d="M3534 2331c188,-69 377,-139 565,-209 189,-70 379,-140 569,-210 190,-71 380,-141 571,-212 191,-71 383,-142 575,-213 -148,-61 -296,-122 -442,-182 -140,52 -279,104 -419,156 -139,51 -278,103 -417,155 -107,-46 -214,-93 -320,-138 -105,-46 -210,-91 -313,-135 -104,-45 -207,-89 -310,-134 -101,-43 -202,-87 -302,-130 133,-50 266,-100 400,-151 134,-50 268,-100 402,-151 -135,-56 -269,-111 -402,-167 -180,68 -359,136 -537,204 -179,67 -357,135 -534,202 -178,67 -355,134 -532,201 -176,66 -353,133 -528,199 124,58 249,116 374,174 173,-65 347,-131 520,-196 174,-65 348,-131 522,-196 100,43 199,87 300,131 101,44 203,89 306,134 103,45 206,90 310,136 105,46 210,92 317,139 -182,67 -363,135 -544,202 -181,67 -362,134 -541,201 136,63 272,127 410,190z"/>
 </g>
</svg>
